<?xml version="1.0" encoding="UTF-8" standalone="no"?>
<!-- Created with Inkscape (http://www.inkscape.org/) -->

<svg
   xmlns:dc="http://purl.org/dc/elements/1.1/"
   xmlns:cc="http://creativecommons.org/ns#"
   xmlns:rdf="http://www.w3.org/1999/02/22-rdf-syntax-ns#"
   xmlns:svg="http://www.w3.org/2000/svg"
   xmlns="http://www.w3.org/2000/svg"
   xmlns:sodipodi="http://sodipodi.sourceforge.net/DTD/sodipodi-0.dtd"
   xmlns:inkscape="http://www.inkscape.org/namespaces/inkscape"
   id="svg3039"
   version="1.1"
   inkscape:version="0.48.4 r9939"
   width="22.621408"
   height="22.443335"
   xml:space="preserve"
   sodipodi:docname="tudelft.svg"><metadata
     id="metadata3045"><rdf:RDF><cc:Work
         rdf:about=""><dc:format>image/svg+xml</dc:format><dc:type
           rdf:resource="http://purl.org/dc/dcmitype/StillImage" /><dc:title></dc:title></cc:Work></rdf:RDF></metadata><defs
     id="defs3043" /><sodipodi:namedview
     pagecolor="#ffffff"
     bordercolor="#666666"
     borderopacity="1"
     objecttolerance="10"
     gridtolerance="10"
     guidetolerance="10"
     inkscape:pageopacity="0"
     inkscape:pageshadow="2"
     inkscape:window-width="1366"
     inkscape:window-height="721"
     id="namedview3041"
     showgrid="false"
     inkscape:zoom="1.9361583"
     inkscape:cx="-40.360602"
     inkscape:cy="-45.473637"
     inkscape:window-x="0"
     inkscape:window-y="22"
     inkscape:window-maximized="1"
     inkscape:current-layer="g3047"
     fit-margin-top="0"
     fit-margin-left="0"
     fit-margin-right="0"
     fit-margin-bottom="0" /><g
     id="g3047"
     inkscape:groupmode="layer"
     inkscape:label="ink_ext_XXXXXX"
     transform="matrix(1.25,0,0,-1.25,-0.33288347,95.088755)"><path
       inkscape:connector-curvature="0"
       id="path3055"
       style="fill:#3db9ed;fill-opacity:1;fill-rule:nonzero;stroke:none"
       d="m 13.777072,66.240566 c -1.293,-0.4059 -2.627,-0.0813 -2.6231,1.6484 0.002,2.636 6.1926,4.8457 7.0508,7.1492 0.2129,0.5743 0.2258,1.0473 -0.0488,1.0325 -0.1973,-0.0117 -0.043,-0.2977 -0.4766,-0.7325 -2.5644,-2.5656 -6.8613,-2.5617 -10.1581993,-4.0382 -2.1621,-0.9707 -8.49800005,-3.952 -7.03900004,-10.6024 0.0695,-0.3152 0.2578,-1.3738 0.4511,-1.3738 0.22460004,0 0.22270004,0.6285 0.21680004,1.3926 -0.0488,3.9597 4.6406,5.064 6.166,7.6511 0.1828,0.3094 0.4981,0.743 0.5735,0.5418 0.0359,-0.0972 0.0125,-0.241 -0.0489,-0.5164 -0.4777,-2.1261 -2.7011,-3.4902 -2.0714,-5.0097 0.8164,-1.9727 3.1738,-0.502 3.8976,0.7656 0.1942,0.3496 0.3028,0.5723 0.4324003,0.5273 0.0977,-0.0343 0.0938,-0.4347 0.0332,-0.7949 -0.3867003,-2.2883 -0.9128003,-3.573 -2.5878003,-4.875 -0.5352,-0.4172 -1.3778,-0.5039 -1.2676,-0.8242 0.0285,-0.0828 0.3918,-0.0742 0.6808,-0.0449 2.611535,0.166977 4.9727683,2.039678 6.6796373,4.252783 1.207482,1.565606 2.087487,3.301567 2.496962,4.724517 0.1035,0.2414 0.1348,0.4688 0.0254,0.5539 -0.1348,0.1035 -0.3301,-0.1347 -0.5293,-0.3113 -0.5098,-0.4477 -1.2086,-0.9145 -1.8535,-1.1164"
       sodipodi:nodetypes="cccccccscccccccccccscccc" /></g></svg>